<mxfile host="app.diagrams.net" agent="Mozilla/5.0 (Macintosh; Intel Mac OS X 10.15; rv:134.0) Gecko/20100101 Firefox/134.0" version="24.8.2">
  <diagram name="Seite-1" id="H7MkaHgBzxVztQAi7_Db">
    <mxGraphModel dx="1590" dy="2152" grid="1" gridSize="10" guides="1" tooltips="1" connect="1" arrows="1" fold="1" page="1" pageScale="1" pageWidth="827" pageHeight="1169" math="0" shadow="0">
      <root>
        <mxCell id="0" />
        <mxCell id="1" parent="0" />
        <mxCell id="dOwwz5_JuKjLHbGvTbm4-49" value="" style="verticalLabelPosition=bottom;verticalAlign=top;html=1;shape=mxgraph.basic.patternFillRect;fillStyle=diagRev;step=5;fillStrokeWidth=0.2;fillStrokeColor=#dddddd;fillColor=#f5f5f5;fontColor=#333333;strokeColor=#666666;" vertex="1" parent="1">
          <mxGeometry x="420" y="280" width="680" height="340" as="geometry" />
        </mxCell>
        <mxCell id="dOwwz5_JuKjLHbGvTbm4-5" value="&lt;div&gt;&lt;br&gt;&lt;/div&gt;&lt;div&gt;&lt;br&gt;&lt;/div&gt;&lt;div&gt;MySQL&lt;/div&gt;&lt;div&gt;Datenbank&lt;br&gt;&lt;/div&gt;" style="strokeWidth=2;html=1;shape=mxgraph.flowchart.database;whiteSpace=wrap;fillColor=#f8cecc;strokeColor=#b85450;" vertex="1" parent="1">
          <mxGeometry x="972.5" y="360" width="90" height="100" as="geometry" />
        </mxCell>
        <mxCell id="dOwwz5_JuKjLHbGvTbm4-7" value="" style="ellipse;shape=cloud;whiteSpace=wrap;html=1;align=center;fillColor=#f5f5f5;fontColor=#333333;strokeColor=#666666;" vertex="1" parent="1">
          <mxGeometry x="193.75" y="-222" width="647.5" height="400" as="geometry" />
        </mxCell>
        <mxCell id="dOwwz5_JuKjLHbGvTbm4-66" style="edgeStyle=orthogonalEdgeStyle;rounded=0;orthogonalLoop=1;jettySize=auto;html=1;entryX=0.25;entryY=1;entryDx=0;entryDy=0;exitX=0;exitY=0.5;exitDx=0;exitDy=0;fillColor=#d5e8d4;strokeColor=#82b366;strokeWidth=2;" edge="1" parent="1" source="dOwwz5_JuKjLHbGvTbm4-47" target="dOwwz5_JuKjLHbGvTbm4-58">
          <mxGeometry relative="1" as="geometry">
            <Array as="points">
              <mxPoint x="398" y="423" />
            </Array>
          </mxGeometry>
        </mxCell>
        <mxCell id="dOwwz5_JuKjLHbGvTbm4-45" value="Frontend" style="swimlane;fontStyle=0;childLayout=stackLayout;horizontal=1;startSize=26;horizontalStack=0;resizeParent=1;resizeParentMax=0;resizeLast=0;collapsible=1;marginBottom=0;align=center;fontSize=14;fillColor=#d5e8d4;strokeColor=#82b366;" vertex="1" parent="1">
          <mxGeometry x="457.5" y="352" width="120" height="116" as="geometry" />
        </mxCell>
        <mxCell id="dOwwz5_JuKjLHbGvTbm4-46" value="- React" style="text;strokeColor=none;fillColor=none;spacingLeft=4;spacingRight=4;overflow=hidden;rotatable=0;points=[[0,0.5],[1,0.5]];portConstraint=eastwest;fontSize=12;whiteSpace=wrap;html=1;" vertex="1" parent="dOwwz5_JuKjLHbGvTbm4-45">
          <mxGeometry y="26" width="120" height="30" as="geometry" />
        </mxCell>
        <mxCell id="dOwwz5_JuKjLHbGvTbm4-47" value="- Material-UI" style="text;strokeColor=none;fillColor=none;spacingLeft=4;spacingRight=4;overflow=hidden;rotatable=0;points=[[0,0.5],[1,0.5]];portConstraint=eastwest;fontSize=12;whiteSpace=wrap;html=1;" vertex="1" parent="dOwwz5_JuKjLHbGvTbm4-45">
          <mxGeometry y="56" width="120" height="30" as="geometry" />
        </mxCell>
        <mxCell id="dOwwz5_JuKjLHbGvTbm4-48" value="- Socket.io" style="text;strokeColor=none;fillColor=none;spacingLeft=4;spacingRight=4;overflow=hidden;rotatable=0;points=[[0,0.5],[1,0.5]];portConstraint=eastwest;fontSize=12;whiteSpace=wrap;html=1;" vertex="1" parent="dOwwz5_JuKjLHbGvTbm4-45">
          <mxGeometry y="86" width="120" height="30" as="geometry" />
        </mxCell>
        <mxCell id="dOwwz5_JuKjLHbGvTbm4-67" style="edgeStyle=orthogonalEdgeStyle;rounded=0;orthogonalLoop=1;jettySize=auto;html=1;exitX=0.5;exitY=0;exitDx=0;exitDy=0;entryX=0.5;entryY=1;entryDx=0;entryDy=0;fillColor=#dae8fc;strokeColor=#6c8ebf;strokeWidth=2;" edge="1" parent="1" source="dOwwz5_JuKjLHbGvTbm4-41" target="dOwwz5_JuKjLHbGvTbm4-58">
          <mxGeometry relative="1" as="geometry">
            <Array as="points">
              <mxPoint x="803" y="200" />
              <mxPoint x="430" y="200" />
            </Array>
          </mxGeometry>
        </mxCell>
        <mxCell id="dOwwz5_JuKjLHbGvTbm4-41" value="Backend" style="swimlane;fontStyle=0;childLayout=stackLayout;horizontal=1;startSize=26;horizontalStack=0;resizeParent=1;resizeParentMax=0;resizeLast=0;collapsible=1;marginBottom=0;align=center;fontSize=14;fillColor=#dae8fc;strokeColor=#6c8ebf;" vertex="1" parent="1">
          <mxGeometry x="742.5" y="352" width="120" height="116" as="geometry" />
        </mxCell>
        <mxCell id="dOwwz5_JuKjLHbGvTbm4-42" value="- Node.js" style="text;strokeColor=none;fillColor=none;spacingLeft=4;spacingRight=4;overflow=hidden;rotatable=0;points=[[0,0.5],[1,0.5]];portConstraint=eastwest;fontSize=12;whiteSpace=wrap;html=1;" vertex="1" parent="dOwwz5_JuKjLHbGvTbm4-41">
          <mxGeometry y="26" width="120" height="30" as="geometry" />
        </mxCell>
        <mxCell id="dOwwz5_JuKjLHbGvTbm4-43" value="- Express" style="text;strokeColor=none;fillColor=none;spacingLeft=4;spacingRight=4;overflow=hidden;rotatable=0;points=[[0,0.5],[1,0.5]];portConstraint=eastwest;fontSize=12;whiteSpace=wrap;html=1;" vertex="1" parent="dOwwz5_JuKjLHbGvTbm4-41">
          <mxGeometry y="56" width="120" height="30" as="geometry" />
        </mxCell>
        <mxCell id="dOwwz5_JuKjLHbGvTbm4-44" value="- Socket.io" style="text;strokeColor=none;fillColor=none;spacingLeft=4;spacingRight=4;overflow=hidden;rotatable=0;points=[[0,0.5],[1,0.5]];portConstraint=eastwest;fontSize=12;whiteSpace=wrap;html=1;" vertex="1" parent="dOwwz5_JuKjLHbGvTbm4-41">
          <mxGeometry y="86" width="120" height="30" as="geometry" />
        </mxCell>
        <mxCell id="dOwwz5_JuKjLHbGvTbm4-50" value="&lt;div&gt;&lt;font size=&quot;1&quot;&gt;&lt;b&gt;&lt;u style=&quot;font-size: 14px;&quot;&gt;Entwicklungsumgebung&lt;/u&gt;&lt;/b&gt;&lt;/font&gt;&amp;nbsp;&lt;/div&gt;&lt;div align=&quot;left&quot;&gt;&lt;b&gt;(Docker Container)&lt;/b&gt;&lt;/div&gt;" style="text;html=1;align=center;verticalAlign=middle;resizable=0;points=[];autosize=1;strokeColor=none;fillColor=none;" vertex="1" parent="1">
          <mxGeometry x="422.5" y="286" width="190" height="40" as="geometry" />
        </mxCell>
        <mxCell id="dOwwz5_JuKjLHbGvTbm4-52" style="edgeStyle=orthogonalEdgeStyle;rounded=0;orthogonalLoop=1;jettySize=auto;html=1;entryX=0;entryY=0.5;entryDx=0;entryDy=0;startArrow=classic;startFill=1;fillColor=#f5f5f5;strokeColor=#666666;strokeWidth=2;" edge="1" parent="1" source="dOwwz5_JuKjLHbGvTbm4-47" target="dOwwz5_JuKjLHbGvTbm4-43">
          <mxGeometry relative="1" as="geometry" />
        </mxCell>
        <mxCell id="dOwwz5_JuKjLHbGvTbm4-53" value="WebSocket / &lt;span class=&quot;hljs-attribute&quot;&gt;REST&lt;/span&gt; API" style="text;whiteSpace=wrap;html=1;" vertex="1" parent="1">
          <mxGeometry x="592.5" y="400" width="140" height="20" as="geometry" />
        </mxCell>
        <mxCell id="dOwwz5_JuKjLHbGvTbm4-54" value="SQL" style="text;whiteSpace=wrap;align=center;" vertex="1" parent="1">
          <mxGeometry x="876.5" y="399" width="80" height="22" as="geometry" />
        </mxCell>
        <mxCell id="dOwwz5_JuKjLHbGvTbm4-56" style="edgeStyle=orthogonalEdgeStyle;rounded=0;orthogonalLoop=1;jettySize=auto;html=1;entryX=0.022;entryY=0.63;entryDx=0;entryDy=0;entryPerimeter=0;startArrow=classic;startFill=1;fillColor=#f5f5f5;strokeColor=#666666;strokeWidth=2;" edge="1" parent="1" source="dOwwz5_JuKjLHbGvTbm4-43" target="dOwwz5_JuKjLHbGvTbm4-5">
          <mxGeometry relative="1" as="geometry" />
        </mxCell>
        <mxCell id="dOwwz5_JuKjLHbGvTbm4-58" value="Azure App Service" style="swimlane;fontStyle=0;childLayout=stackLayout;horizontal=1;startSize=26;horizontalStack=0;resizeParent=1;resizeParentMax=0;resizeLast=0;collapsible=1;marginBottom=0;align=center;fontSize=14;fillColor=#dae8fc;strokeColor=#6c8ebf;" vertex="1" parent="1">
          <mxGeometry x="365" y="-50" width="130" height="56" as="geometry" />
        </mxCell>
        <mxCell id="dOwwz5_JuKjLHbGvTbm4-77" value="Frontend / Backend" style="text;html=1;align=center;verticalAlign=middle;resizable=0;points=[];autosize=1;strokeColor=#82b366;fillColor=#d5e8d4;" vertex="1" parent="dOwwz5_JuKjLHbGvTbm4-58">
          <mxGeometry y="26" width="130" height="30" as="geometry" />
        </mxCell>
        <mxCell id="dOwwz5_JuKjLHbGvTbm4-62" value="Azure Database for SQL" style="swimlane;fontStyle=0;childLayout=stackLayout;horizontal=1;startSize=26;horizontalStack=0;resizeParent=1;resizeParentMax=0;resizeLast=0;collapsible=1;marginBottom=0;align=center;fontSize=14;fillColor=#f8cecc;strokeColor=#b85450;" vertex="1" parent="1">
          <mxGeometry x="517.5" y="-20" width="187.5" height="40" as="geometry" />
        </mxCell>
        <mxCell id="dOwwz5_JuKjLHbGvTbm4-63" value="Azure Blob Storage" style="swimlane;fontStyle=0;childLayout=stackLayout;horizontal=1;startSize=26;horizontalStack=0;resizeParent=1;resizeParentMax=0;resizeLast=0;collapsible=1;marginBottom=0;align=center;fontSize=14;fillColor=#fff2cc;strokeColor=#d6b656;" vertex="1" parent="1">
          <mxGeometry x="462.5" y="50" width="130" height="56" as="geometry" />
        </mxCell>
        <mxCell id="dOwwz5_JuKjLHbGvTbm4-69" value="FileStorage" style="text;html=1;align=center;verticalAlign=middle;resizable=0;points=[];autosize=1;strokeColor=none;fillColor=none;" vertex="1" parent="dOwwz5_JuKjLHbGvTbm4-63">
          <mxGeometry y="26" width="130" height="30" as="geometry" />
        </mxCell>
        <mxCell id="dOwwz5_JuKjLHbGvTbm4-65" value="&lt;font style=&quot;font-size: 14px;&quot;&gt;&lt;b&gt;&lt;u&gt;Public-Cloud&lt;/u&gt;&lt;/b&gt;&lt;/font&gt;" style="text;html=1;align=center;verticalAlign=middle;resizable=0;points=[];autosize=1;strokeColor=none;fillColor=none;" vertex="1" parent="1">
          <mxGeometry x="622.5" y="-110" width="110" height="30" as="geometry" />
        </mxCell>
        <mxCell id="dOwwz5_JuKjLHbGvTbm4-68" style="edgeStyle=orthogonalEdgeStyle;rounded=0;orthogonalLoop=1;jettySize=auto;html=1;exitX=0.5;exitY=0;exitDx=0;exitDy=0;exitPerimeter=0;entryX=1;entryY=0.5;entryDx=0;entryDy=0;fillColor=#f8cecc;strokeColor=#b85450;strokeWidth=2;" edge="1" parent="1" source="dOwwz5_JuKjLHbGvTbm4-5" target="dOwwz5_JuKjLHbGvTbm4-62">
          <mxGeometry relative="1" as="geometry">
            <Array as="points">
              <mxPoint x="890" y="360" />
              <mxPoint x="890" />
            </Array>
          </mxGeometry>
        </mxCell>
        <mxCell id="dOwwz5_JuKjLHbGvTbm4-70" value="FileStorage" style="swimlane;fontStyle=0;childLayout=stackLayout;horizontal=1;startSize=26;horizontalStack=0;resizeParent=1;resizeParentMax=0;resizeLast=0;collapsible=1;marginBottom=0;align=center;fontSize=14;fillColor=#fff2cc;strokeColor=#d6b656;" vertex="1" parent="1">
          <mxGeometry x="742.5" y="529" width="120" height="56" as="geometry" />
        </mxCell>
        <mxCell id="dOwwz5_JuKjLHbGvTbm4-71" value="- Lokaler Speicher" style="text;strokeColor=none;fillColor=none;spacingLeft=4;spacingRight=4;overflow=hidden;rotatable=0;points=[[0,0.5],[1,0.5]];portConstraint=eastwest;fontSize=12;whiteSpace=wrap;html=1;" vertex="1" parent="dOwwz5_JuKjLHbGvTbm4-70">
          <mxGeometry y="26" width="120" height="30" as="geometry" />
        </mxCell>
        <mxCell id="dOwwz5_JuKjLHbGvTbm4-74" style="edgeStyle=orthogonalEdgeStyle;rounded=0;orthogonalLoop=1;jettySize=auto;html=1;entryX=0.5;entryY=0;entryDx=0;entryDy=0;startArrow=classic;startFill=1;fillColor=#f5f5f5;strokeColor=#666666;strokeWidth=2;" edge="1" parent="1">
          <mxGeometry relative="1" as="geometry">
            <mxPoint x="802" y="470" as="sourcePoint" />
            <mxPoint x="802.5" y="528" as="targetPoint" />
            <Array as="points" />
          </mxGeometry>
        </mxCell>
        <mxCell id="dOwwz5_JuKjLHbGvTbm4-76" style="edgeStyle=orthogonalEdgeStyle;rounded=0;orthogonalLoop=1;jettySize=auto;html=1;exitX=0;exitY=0.5;exitDx=0;exitDy=0;entryX=0.015;entryY=0.004;entryDx=0;entryDy=0;entryPerimeter=0;fillColor=#fff2cc;strokeColor=#d6b656;strokeWidth=2;" edge="1" parent="1" source="dOwwz5_JuKjLHbGvTbm4-71" target="dOwwz5_JuKjLHbGvTbm4-69">
          <mxGeometry relative="1" as="geometry">
            <Array as="points">
              <mxPoint x="330" y="570" />
              <mxPoint x="330" y="76" />
            </Array>
          </mxGeometry>
        </mxCell>
        <mxCell id="dOwwz5_JuKjLHbGvTbm4-82" value="" style="ellipse;shape=cloud;whiteSpace=wrap;html=1;align=center;fillColor=#f5f5f5;fontColor=#333333;strokeColor=#666666;" vertex="1" parent="1">
          <mxGeometry x="972.5" y="-180" width="583.5" height="370" as="geometry" />
        </mxCell>
        <mxCell id="dOwwz5_JuKjLHbGvTbm4-83" value="Raspberry Pi 5" style="swimlane;fontStyle=0;childLayout=stackLayout;horizontal=1;startSize=26;horizontalStack=0;resizeParent=1;resizeParentMax=0;resizeLast=0;collapsible=1;marginBottom=0;align=center;fontSize=14;fillColor=#dae8fc;strokeColor=#6c8ebf;" vertex="1" parent="1">
          <mxGeometry x="1090" y="-28" width="280" height="56" as="geometry" />
        </mxCell>
        <mxCell id="dOwwz5_JuKjLHbGvTbm4-84" value="Frontend / Backend / MySQL Datenbank" style="text;html=1;align=center;verticalAlign=middle;resizable=0;points=[];autosize=1;strokeColor=#82b366;fillColor=#d5e8d4;" vertex="1" parent="dOwwz5_JuKjLHbGvTbm4-83">
          <mxGeometry y="26" width="280" height="30" as="geometry" />
        </mxCell>
        <mxCell id="dOwwz5_JuKjLHbGvTbm4-86" value="128 GB SSD-Karte" style="swimlane;fontStyle=0;childLayout=stackLayout;horizontal=1;startSize=26;horizontalStack=0;resizeParent=1;resizeParentMax=0;resizeLast=0;collapsible=1;marginBottom=0;align=center;fontSize=14;fillColor=#fff2cc;strokeColor=#d6b656;" vertex="1" parent="1">
          <mxGeometry x="1265" y="60" width="130" height="56" as="geometry" />
        </mxCell>
        <mxCell id="dOwwz5_JuKjLHbGvTbm4-87" value="FileStorage" style="text;html=1;align=center;verticalAlign=middle;resizable=0;points=[];autosize=1;strokeColor=none;fillColor=none;" vertex="1" parent="dOwwz5_JuKjLHbGvTbm4-86">
          <mxGeometry y="26" width="130" height="30" as="geometry" />
        </mxCell>
        <mxCell id="dOwwz5_JuKjLHbGvTbm4-88" value="&lt;font style=&quot;font-size: 14px;&quot;&gt;&lt;b&gt;&lt;u&gt;Private-Cloud&lt;/u&gt;&lt;/b&gt;&lt;/font&gt;" style="text;html=1;align=center;verticalAlign=middle;resizable=0;points=[];autosize=1;strokeColor=none;fillColor=none;" vertex="1" parent="1">
          <mxGeometry x="1350" y="-70" width="110" height="30" as="geometry" />
        </mxCell>
        <mxCell id="dOwwz5_JuKjLHbGvTbm4-89" style="edgeStyle=orthogonalEdgeStyle;rounded=0;orthogonalLoop=1;jettySize=auto;html=1;entryX=0.262;entryY=1.083;entryDx=0;entryDy=0;entryPerimeter=0;fillColor=#f8cecc;strokeColor=#b85450;strokeWidth=2;" edge="1" parent="1" source="dOwwz5_JuKjLHbGvTbm4-5" target="dOwwz5_JuKjLHbGvTbm4-84">
          <mxGeometry relative="1" as="geometry" />
        </mxCell>
        <mxCell id="dOwwz5_JuKjLHbGvTbm4-90" style="edgeStyle=orthogonalEdgeStyle;rounded=0;orthogonalLoop=1;jettySize=auto;html=1;entryX=0;entryY=0.5;entryDx=0;entryDy=0;exitX=0.5;exitY=0;exitDx=0;exitDy=0;fillColor=#dae8fc;strokeColor=#6c8ebf;strokeWidth=2;" edge="1" parent="1" source="dOwwz5_JuKjLHbGvTbm4-41" target="dOwwz5_JuKjLHbGvTbm4-83">
          <mxGeometry relative="1" as="geometry">
            <Array as="points">
              <mxPoint x="803" y="200" />
              <mxPoint x="1000" y="200" />
              <mxPoint x="1000" />
            </Array>
          </mxGeometry>
        </mxCell>
        <mxCell id="dOwwz5_JuKjLHbGvTbm4-91" style="edgeStyle=orthogonalEdgeStyle;rounded=0;orthogonalLoop=1;jettySize=auto;html=1;exitX=1;exitY=0.5;exitDx=0;exitDy=0;fillColor=#d5e8d4;strokeColor=#82b366;strokeWidth=2;" edge="1" parent="1">
          <mxGeometry relative="1" as="geometry">
            <mxPoint x="577.5" y="387" as="sourcePoint" />
            <mxPoint x="1090" y="15" as="targetPoint" />
            <Array as="points">
              <mxPoint x="630" y="387" />
              <mxPoint x="630" y="164" />
              <mxPoint x="1000" y="164" />
              <mxPoint x="1000" y="14" />
            </Array>
          </mxGeometry>
        </mxCell>
        <mxCell id="dOwwz5_JuKjLHbGvTbm4-92" style="edgeStyle=orthogonalEdgeStyle;rounded=0;orthogonalLoop=1;jettySize=auto;html=1;exitX=1;exitY=0.5;exitDx=0;exitDy=0;entryX=0.602;entryY=1.108;entryDx=0;entryDy=0;entryPerimeter=0;fillColor=#fff2cc;strokeColor=#d6b656;strokeWidth=2;" edge="1" parent="1" source="dOwwz5_JuKjLHbGvTbm4-71" target="dOwwz5_JuKjLHbGvTbm4-87">
          <mxGeometry relative="1" as="geometry" />
        </mxCell>
        <mxCell id="dOwwz5_JuKjLHbGvTbm4-96" value="Monitoring" style="swimlane;fontStyle=0;childLayout=stackLayout;horizontal=1;startSize=26;horizontalStack=0;resizeParent=1;resizeParentMax=0;resizeLast=0;collapsible=1;marginBottom=0;align=center;fontSize=14;" vertex="1" parent="1">
          <mxGeometry x="410" y="-140" width="135" height="56" as="geometry" />
        </mxCell>
        <mxCell id="dOwwz5_JuKjLHbGvTbm4-97" value="Prometheus / Grafana" style="text;html=1;align=center;verticalAlign=middle;resizable=0;points=[];autosize=1;" vertex="1" parent="dOwwz5_JuKjLHbGvTbm4-96">
          <mxGeometry y="26" width="135" height="30" as="geometry" />
        </mxCell>
        <mxCell id="dOwwz5_JuKjLHbGvTbm4-98" value="Monitoring" style="swimlane;fontStyle=0;childLayout=stackLayout;horizontal=1;startSize=26;horizontalStack=0;resizeParent=1;resizeParentMax=0;resizeLast=0;collapsible=1;marginBottom=0;align=center;fontSize=14;" vertex="1" parent="1">
          <mxGeometry x="1150" y="-106" width="135" height="56" as="geometry" />
        </mxCell>
        <mxCell id="dOwwz5_JuKjLHbGvTbm4-99" value="Prometheus / Grafana" style="text;html=1;align=center;verticalAlign=middle;resizable=0;points=[];autosize=1;" vertex="1" parent="dOwwz5_JuKjLHbGvTbm4-98">
          <mxGeometry y="26" width="135" height="30" as="geometry" />
        </mxCell>
      </root>
    </mxGraphModel>
  </diagram>
</mxfile>
